<?xml version="1.0" standalone="no"?>
<!DOCTYPE svg PUBLIC "-//W3C//DTD SVG 20010904//EN"
 "http://www.w3.org/TR/2001/REC-SVG-20010904/DTD/svg10.dtd">
<svg version="1.0" xmlns="http://www.w3.org/2000/svg"
 width="1280.000000pt" height="768.000000pt" viewBox="0 0 1280.000000 768.000000"
 preserveAspectRatio="xMidYMid meet">
<g transform="translate(0.000000,768.000000) scale(0.100000,-0.100000)"
fill="#000000" stroke="none">
<path d="M6238 6151 c-77 -25 -118 -52 -177 -117 -98 -107 -156 -274 -168
-479 -10 -184 16 -283 202 -760 62 -159 122 -321 134 -360 23 -75 82 -372 127
-630 15 -88 30 -163 34 -168 3 -4 19 64 34 150 52 295 106 562 131 648 14 48
63 189 109 313 198 535 225 660 196 902 -31 249 -121 411 -268 482 -61 29 -77
32 -182 35 -92 2 -126 -1 -172 -16z"/>
<path d="M4744 5240 c-72 -11 -136 -42 -193 -95 -64 -60 -94 -129 -94 -215 0
-92 29 -155 108 -228 82 -77 195 -133 464 -227 247 -87 361 -141 487 -231 98
-70 243 -207 294 -278 19 -25 37 -46 41 -46 14 0 22 70 16 134 -13 137 -113
374 -241 571 -270 415 -612 654 -882 615z"/>
<path d="M7870 5239 c-194 -22 -408 -164 -608 -404 -243 -290 -420 -676 -397
-861 3 -30 10 -54 14 -54 4 0 24 22 44 49 56 73 194 202 278 258 122 82 197
117 522 243 375 146 500 232 542 374 68 227 -132 426 -395 395z"/>
<path d="M2555 4999 c-245 -32 -460 -144 -582 -304 -60 -79 -117 -201 -139
-300 -24 -107 -24 -292 0 -400 21 -98 90 -242 148 -312 135 -163 357 -268 617
-293 155 -15 299 8 554 87 118 37 148 37 134 0 -7 -18 -575 -524 -817 -729
-238 -201 -369 -302 -541 -417 -345 -231 -612 -323 -939 -323 -203 0 -360 40
-497 128 -174 111 -274 311 -260 519 14 206 106 335 279 395 79 27 229 38 283
20 42 -14 115 -75 115 -96 0 -7 -15 -21 -32 -30 -80 -40 -111 -92 -112 -184
-1 -99 42 -161 144 -209 46 -21 69 -26 145 -26 78 0 98 4 152 29 73 33 144
104 176 174 17 38 22 66 21 142 0 84 -3 102 -29 155 -61 127 -204 233 -373
276 -141 36 -368 23 -537 -32 -209 -67 -363 -210 -425 -395 -11 -32 -25 -67
-30 -76 -13 -22 -13 -335 -1 -343 5 -3 13 -20 16 -38 4 -17 24 -68 45 -112
153 -327 485 -489 965 -472 258 10 479 68 733 193 305 152 580 360 1092 830
222 203 418 374 430 374 4 0 13 -6 19 -14 10 -12 6 -33 -18 -103 -35 -103 -56
-218 -66 -358 -12 -171 31 -348 122 -505 49 -85 199 -234 283 -283 259 -150
663 -154 942 -11 75 39 111 66 184 139 136 135 204 285 189 414 -30 262 -215
479 -456 536 -82 19 -226 19 -307 0 -174 -41 -292 -164 -292 -305 0 -183 86
-280 249 -280 91 0 142 20 188 73 44 51 56 103 50 216 l-6 94 50 -6 c114 -14
235 -100 279 -198 26 -61 39 -155 29 -225 -22 -159 -166 -306 -366 -373 -86
-29 -202 -40 -314 -30 -333 29 -531 197 -596 504 -17 83 -19 281 -3 380 29
185 116 359 240 485 155 156 363 256 645 309 440 83 870 33 1220 -141 339
-169 548 -425 617 -758 28 -133 28 -345 0 -452 -65 -245 -226 -369 -482 -372
-166 -2 -257 43 -306 148 -58 125 -1 266 124 307 37 12 52 3 52 -34 0 -27 27
-73 56 -96 57 -45 136 -36 192 22 88 91 80 205 -21 294 -59 51 -114 67 -216
61 -203 -12 -380 -172 -398 -360 -21 -231 118 -413 355 -464 159 -33 368 -7
518 66 144 70 259 203 309 358 14 43 21 53 37 50 15 -2 26 -20 42 -63 71 -197
213 -330 421 -395 96 -30 282 -38 383 -16 165 35 282 119 340 243 24 52 27 69
27 173 0 107 -2 119 -28 169 -112 212 -452 296 -601 147 -80 -80 -81 -182 -1
-262 68 -67 138 -70 200 -8 19 19 39 52 45 74 14 51 28 57 77 32 144 -75 171
-266 51 -367 -78 -66 -217 -96 -345 -77 -215 34 -356 179 -399 412 -24 123
-15 331 20 465 50 195 173 393 322 520 287 244 707 379 1127 362 792 -32 1210
-337 1269 -928 22 -215 -15 -396 -109 -533 -57 -84 -122 -137 -228 -187 -155
-73 -381 -93 -540 -50 -176 49 -314 151 -377 279 -31 62 -33 73 -33 172 0 99
2 110 33 172 52 107 155 179 257 182 l50 1 -3 -45 c-4 -63 15 -175 38 -220 42
-82 112 -115 233 -109 65 4 82 9 118 34 24 17 55 53 72 84 26 45 31 68 35 137
4 75 2 89 -22 138 -64 130 -216 206 -413 206 -114 0 -178 -13 -268 -54 -95
-44 -183 -120 -243 -209 -66 -100 -93 -179 -99 -297 -4 -80 -2 -105 17 -160
78 -231 286 -401 573 -467 115 -26 376 -24 492 5 247 62 433 211 545 437 69
140 85 216 84 395 -1 179 -20 280 -79 407 -39 86 -42 98 -19 107 21 8 89 -47
376 -307 428 -386 585 -517 793 -664 290 -204 572 -335 852 -395 91 -19 138
-23 298 -23 265 0 407 29 585 121 212 109 352 290 415 537 35 136 34 156 -21
342 -77 262 -294 427 -629 475 -104 14 -271 12 -345 -6 -264 -62 -438 -276
-400 -492 37 -211 234 -333 450 -278 125 31 190 106 190 215 -1 93 -33 146
-119 193 -38 21 -38 28 -4 69 57 67 166 86 314 55 220 -47 339 -204 339 -446
0 -162 -52 -292 -159 -399 -147 -146 -334 -213 -601 -213 -496 0 -866 202
-1726 943 -605 522 -623 539 -580 555 7 3 76 -13 153 -36 226 -65 324 -83 448
-82 265 2 506 94 670 257 136 136 201 291 212 505 17 349 -129 607 -422 750
-117 57 -224 86 -375 102 -271 27 -517 -51 -685 -217 -125 -125 -179 -265
-155 -402 21 -123 79 -200 190 -252 49 -23 67 -26 170 -26 99 0 121 3 156 22
87 47 131 130 121 229 -13 127 -80 185 -233 200 -41 4 -64 11 -64 19 0 25 88
132 135 163 81 54 135 67 270 66 214 0 375 -63 511 -198 94 -94 136 -171 160
-293 55 -276 -76 -555 -316 -671 -128 -63 -192 -77 -350 -76 -155 1 -294 26
-515 94 -348 107 -821 201 -1245 246 -210 23 -495 23 -625 0 -397 -68 -728
-223 -961 -448 -139 -134 -215 -244 -290 -416 -18 -42 -39 -77 -45 -77 -13 0
-13 -1 -68 118 -253 549 -969 912 -1693 859 -383 -28 -953 -139 -1368 -267
-300 -93 -515 -127 -669 -108 -355 45 -571 281 -571 623 0 183 47 299 169 420
122 121 269 185 458 197 147 9 266 -23 357 -99 39 -32 96 -112 96 -134 0 -7
-27 -14 -67 -18 -37 -4 -86 -15 -108 -25 -161 -71 -161 -318 -1 -400 38 -19
68 -26 137 -29 169 -8 292 56 356 186 25 51 28 68 28 157 0 95 -2 104 -37 175
-136 276 -481 427 -863 379z"/>
</g>
</svg>
